# AST/ASF file generated using VICON BodyLanguage
# -----------------------------------------------
:version 1.10
:name VICON
:units
  mass 1.0
  length 0.45
  angle deg
:documentation
   .ast/.asf automatically generated from VICON data using
   VICON BodyBuilder and BodyLanguage model FoxedUp or BRILLIANT.MOD
:root
   order TX TY TZ RX RY RZ
   axis XYZ
   position 0 0 0  
   orientation 0 0 0 
:bonedata
  begin
     id 1 
     name lhipjoint
     direction 0.627412 -0.730575 0.26947 
     length 2.49821 
     axis 0 0 0  XYZ
  end
  begin
     id 2 
     name lfemur
     direction 0.34202 -0.939693 0  
     length 6.89165  
     axis 0 0 20  XYZ
    dof rx ry rz
    limits (-160.0 20.0)
           (-70.0 70.0)
           (-60.0 70.0)
  end
  begin
     id 3 
     name ltibia
     direction 0.34202 -0.939693 0   
     length 7.91287   
     axis 0 0 20   XYZ
    dof rx
    limits (-10.0 170.0)
  end
  begin
     id 4 
     name lfoot
     direction 0.0941675 -0.258723 0.96135   
     length 2.16919   
     axis -90 7.62852e-016 20   XYZ
    dof rx rz
    limits (-45.0 90.0)
           (-70.0 20.0)
  end
  begin
     id 5 
     name ltoes
     direction 1.5347e-011 -4.21941e-011 1   
     length 1.08535   
     axis -90 7.62852e-016 20   XYZ
    dof rx
    limits (-90.0 20.0)
  end
  begin
     id 6 
     name rhipjoint
     direction -0.614241 -0.740361 0.27308   
     length 2.46519  
     axis 0 0 0  XYZ 
  end
  begin
     id 7 
     name rfemur
     direction -0.34202 -0.939693 0   
     length 7.27512   
     axis 0 0 -20   XYZ
    dof rx ry rz
    limits (-160.0 20.0)
           (-70.0 70.0)
           (-70.0 60.0)
  end
  begin
     id 8 
     name rtibia
     direction -0.34202 -0.939693 0   
     length 7.89523   
     axis 0 0 -20   XYZ
    dof rx
    limits (-10.0 170.0)
 end
 begin
     id 9 
     name rfoot
     direction -0.0860444 -0.236405 0.967837   
     length 2.29534  
     axis -90 -7.62852e-016 -20   XYZ
    dof rx rz
    limits (-45.0 90.0)
           (-20.0 70.0)
  end
  begin
     id 10 
     name rtoes
     direction -1.53608e-011 -4.21861e-011 1   
     length 1.14915   
     axis -90 -7.62852e-016 -20   XYZ
    dof rx
    limits (-90.0 20.0)
  end
  begin
     id 11 
     name lowerback
     direction -0.00734074 0.997215 -0.0742143   
     length 2.13469   
     axis 0 0 0   XYZ
    dof rx ry rz
    limits (-20.0 45.0)
           (-30.0 30.0)
           (-30.0 30.0)
  end
  begin
     id 12 
     name upperback
     direction 0.0285728 0.99958 -0.00488656   
     length 2.13416   
     axis 0 0 0   XYZ
    dof rx ry rz
    limits (-20.0 45.0)
           (-30.0 30.0)
           (-30.0 30.0)
  end
  begin
     id 13 
     name thorax
     direction 0.0316844 0.999056 0.0297249   
     length 2.14463   
     axis 0 0 0   XYZ
    dof rx ry rz
    limits (-20.0 45.0)
           (-30.0 30.0)
           (-30.0 30.0)
  end
  begin
     id 14 
     name lowerneck
     direction -0.0281545 0.996802 0.0747864   
     length 1.79004   
     axis 0 0 0   XYZ
    dof rx ry rz
    limits (-20.0 45.0)
           (-30.0 30.0)
           (-30.0 30.0)
  end
  begin
     id 15 
     name upperneck
     direction -0.00100185 0.982732 -0.185031   
     length 1.79988   
     axis 0 0 0   XYZ
    dof rx ry rz
    limits (-20.0 45.0)
           (-30.0 30.0)
           (-30.0 30.0)
  end
  begin
     id 16
     name head
     direction 0.00403747 0.997539 -0.0700022  
     length 1.81696  
     axis 0 0 0   XYZ
    dof rx ry rz
    limits (-20.0 45.0)
           (-30.0 30.0)
           (-30.0 30.0)
  end
  begin
     id 17 
     name lclavicle
     direction 0.959882 0.242905 -0.140082  
     length 3.87755  
     axis 0 0 0   XYZ
    dof ry rz
    limits (-20.0 10.0)
           (0.0 20.0)
  end
  begin
     id 18 
     name lhumerus
     direction 1 -4.4895e-011 3.76166e-027   
     length 5.14601   
     axis 180 -30 -90   XYZ
    dof rx ry rz
    limits (-60.0 90.0)
           (-90.0 90.0)
           (-90.0 90.0)
  end
  begin
     id 19
     name lradius
     direction 1 -4.48966e-011 -3.24039e-027   
     length 3.64452   
     axis 180 -30 -90   XYZ
    dof rx
    limits (-10.0 170.0)
  end
  begin
     id 20
     name lwrist
     direction 1 -4.48999e-011 2.57119e-027   
     length 1.82226   
     axis -1.61769e-015 90 90   XYZ
    dof ry
    limits (-180.0 0.0)
 end
  begin
     id 21 
     name lhand
     direction 1 -4.48961e-011 5.13984e-027   
     length 0.56228   
     axis -3.27988e-015 90 90   XYZ
    dof rx rz
    limits (-90.0 90.0)
           (-45.0 45.0)
  end
  begin
     id 22 
     name lfingers
     direction 1 -4.48991e-011 1.02836e-026   
     length 0.453325   
     axis -6.5598e-015 90 90   XYZ
    dof rx
    limits (0.0 90.0)
  end
  begin
     id 23
     name lthumb
     direction 0.707107 -6.34956e-011 0.707107   
     length 0.650886   
     axis -90 45 2.19363e-014   XYZ
    dof rx rz
    limits (-45.0 45.0)
           (-45.0 45.0)
  end
  begin
     id 24 
     name rclavicle
     direction -0.929201 0.345171 -0.132073   
     length 3.55416  
     axis 0 0 0   XYZ 
    dof ry rz
    limits (-10.0 20.0)
           (-20.0 0.0)
  end
  begin
     id 25 
     name rhumerus
     direction -1 -4.48979e-011 4.53734e-027  
     length 5.33913   
     axis 180 30 90   XYZ
    dof rx ry rz
    limits (-90.0 60.0)
           (-90.0 90.0)
           (-90.0 90.0)
  end
  begin
     id 26 
     name rradius
     direction -1 -4.4896e-011 -2.24007e-027   
     length 3.56478   
     axis 180 30 90   XYZ
    dof rx
    limits (-10.0 170.0)
  end
  begin
     id 27 
     name rwrist
     direction -1 -4.48923e-011 2.56866e-027   
     length 1.78239   
     axis -1.61769e-015 -90 -90   XYZ
    dof ry
    limits (-180.0 0.0)
  end
  begin
     id 28
     name rhand
     direction -1 -4.48914e-011 5.13667e-027   
     length 0.857474   
     axis -3.27988e-015 -90 -90   XYZ
    dof rx rz
    limits (-90.0 90.0)
           (-45.0 45.0)
  end
  begin
     id 29
     name rfingers
     direction -1 -4.49112e-011 1.02998e-026   
     length 0.691318   
     axis -6.5598e-015 -90 -90   XYZ
    dof rx
    limits (0.0 90.0)
  end
  begin
     id 30
     name rthumb
     direction -0.707107 -6.34979e-011 0.707107   
     length 0.992598   
     axis -90 -45 -2.19363e-014   XYZ
    dof rx rz
    limits (-45.0 45.0)
           (-45.0 45.0)
  end
:hierarchy
  begin
    root lhipjoint rhipjoint lowerback
    lhipjoint lfemur
    lfemur ltibia
    ltibia lfoot
    lfoot ltoes
    rhipjoint rfemur
    rfemur rtibia
    rtibia rfoot
    rfoot rtoes
    lowerback upperback
    upperback thorax
    thorax lowerneck lclavicle rclavicle
    lowerneck upperneck
    upperneck head
    lclavicle lhumerus
    lhumerus lradius
    lradius lwrist
    lwrist lhand lthumb
    lhand lfingers
    rclavicle rhumerus
    rhumerus rradius
    rradius rwrist
    rwrist rhand rthumb
    rhand rfingers
  end

#!OML:ASF F:\VICON\USERDATA\INSTALL\Justin4\Justin4.ASF
:FULLY-SPECIFIED
:DEGREES
1479
root -12.0063 14.9392 11.5516 2.47223 17.2144 1.89651
lowerback 26.6953 -2.17955 -1.77964
upperback 5.82374 -3.00895 1.82471
thorax -8.08698 -1.34709 4.02705
lowerneck -18.4896 1.2824 -6.43191
upperneck 5.8663 3.30344 -0.670655
head 4.63026 1.41788 1.10883
rclavicle 3.39922e-014 -7.95139e-016
rhumerus -23.7108 -12.5309 -66.3719
rradius 128.093
rwrist 0.838833
rhand -17.9735 22.3238
rfingers 7.12502
rthumb 8.29594 -7.49331
lclavicle 3.39922e-014 -7.95139e-016
lhumerus 3.3245 16.4992 71.5355
lradius 124.335
lwrist 14.5666
lhand -14.4325 5.73438
lfingers 7.12502
lthumb 11.7121 35.387
rfemur -56.2663 -6.81024 4.28467
rtibia 72.8949
rfoot -0.780421 -8.00129
rtoes -11.1697
lfemur -20.4 -4.30002 -3.40775
ltibia 74.0934
lfoot 16.5809 -31.559
ltoes -30.1216
1480
root -11.9698 15.1575 11.5394 2.9319 17.1178 2.0708
lowerback 26.4766 -2.04996 -1.9929
upperback 5.41576 -2.94227 1.48247
thorax -8.44849 -1.30218 3.75227
lowerneck -18.497 1.20909 -6.44841
upperneck 6.19756 3.19092 -0.414584
head 4.73388 1.37007 1.18521
rclavicle 4.77083e-015 -1.55052e-014
rhumerus -24.084 -12.4214 -66.7777
rradius 128.191
rwrist 1.30162
rhand -17.836 22.4869
rfingers 7.12502
rthumb 8.42865 -7.32489
lclavicle 4.77083e-015 -1.55052e-014
lhumerus 2.53563 16.5523 71.6402
lradius 125.068
lwrist 14.2636
lhand -13.0165 6.2927
lfingers 7.12502
lthumb 13.0773 35.8627
rfemur -55.2413 -5.81022 3.95596
rtibia 70.7015
rfoot 0.279473 -8.67552
rtoes -7.55865
lfemur -21.4913 -3.35762 -3.49077
ltibia 72.8212
lfoot 21.3606 -32.4341
ltoes -29.2201
1481
root -11.938 15.3634 11.5292 3.17148 16.9257 2.29183
lowerback 26.2863 -1.81785 -2.36585
upperback 5.21427 -2.78372 1.13846
thorax -8.59012 -1.21759 3.53087
lowerneck -18.2832 1.07007 -6.37742
upperneck 6.13019 2.94891 -0.217272
head 4.68407 1.26974 1.21195
rclavicle 5.26779e-015 -9.34288e-015
rhumerus -24.3885 -12.4923 -67.3502
rradius 128.283
rwrist 1.93732
rhand -17.9813 22.8727
rfingers 7.12502
rthumb 8.28834 -6.94473
lclavicle 5.26779e-015 -9.34288e-015
lhumerus 2.02132 16.2877 71.725
lradius 125.526
lwrist 14.1171
lhand -12.9832 6.24245
lfingers 7.12502
lthumb 13.1094 35.8104
rfemur -53.9994 -4.78317 3.68571
rtibia 68.7238
rfoot 0.739646 -8.85021
rtoes -4.81621
lfemur -22.1906 -2.47801 -3.62946
ltibia 71.8675
lfoot 24.1439 -33.5674
ltoes -27.7625
1482
root -11.8988 15.537 11.528 3.28827 16.6745 2.34401
lowerback 25.8864 -1.59435 -2.58371
upperback 5.19745 -2.57815 0.863594
thorax -8.42454 -1.12379 3.26724
lowerneck -18.6144 0.829833 -6.73478
upperneck 6.44929 2.67917 0.381821
head 4.83032 1.16092 1.43902
rclavicle -2.77305e-014 -4.57205e-015
rhumerus -24.2195 -12.5262 -67.8916
rradius 128.27
rwrist 2.33823
rhand -18.3805 23.4582
rfingers 7.12502
rthumb 7.90313 -6.37403
lclavicle -2.77305e-014 -4.57205e-015
lhumerus 1.89757 15.6935 72.0141
lradius 125.635
lwrist 14.3498
lhand -14.6223 5.4611
lfingers 7.12502
lthumb 11.529 35.124
rfemur -52.8153 -3.92691 3.72288
rtibia 67.1832
rfoot 0.341587 -8.24822
rtoes -3.16647
lfemur -22.6556 -1.57928 -3.5941
ltibia 71.3061
lfoot 23.9163 -34.6268
ltoes -26.7776
1483
root -11.8573 15.7212 11.5331 3.42946 16.4225 2.41028
lowerback 25.309 -1.36445 -2.85446
upperback 5.21578 -2.36708 0.61247
thorax -8.12444 -1.02982 3.05402
lowerneck -18.9864 0.580198 -7.16614
upperneck 6.94904 2.4175 1.0042
head 5.04188 1.05252 1.68839
rclavicle -3.18055e-015 8.94531e-016
rhumerus -23.4282 -12.3973 -68.2101
rradius 128.328
rwrist 1.78951
rhand -17.8717 23.4818
rfingers 7.12502
rthumb 8.39413 -6.33136
lclavicle -3.18055e-015 8.94531e-016
lhumerus 1.98461 15.3008 72.4153
lradius 125.661
lwrist 14.09
lhand -15.0209 5.1686
lfingers 7.12502
lthumb 11.1446 34.8526
rfemur -51.6233 -3.36961 3.9715
rtibia 66.0634
rfoot -0.668268 -7.12759
rtoes -2.67989
lfemur -23.0099 -0.549666 -3.66307
ltibia 70.8315
lfoot 21.2622 -34.9677
ltoes -27.4381
1484
root -11.8096 15.8827 11.5411 3.50728 16.3099 2.88932
lowerback 24.8633 -1.14531 -3.38959
upperback 5.24163 -2.2455 0.2325
thorax -7.87055 -0.971746 2.88694
lowerneck -19.1635 0.331858 -7.47929
upperneck 7.45627 2.12312 1.51797
head 5.23322 0.924854 1.88039
rclavicle 6.13002e-014 -2.77802e-014
rhumerus -22.1496 -12.1565 -68.3999
rradius 128.642
rwrist 0.368619
rhand -16.1533 22.2251
rfingers 7.12502
rthumb 10.0522 -7.51483
lclavicle 6.13002e-014 -2.77802e-014
lhumerus 2.05149 15.1404 72.7802
lradius 125.825
lwrist 13.3598
lhand -14.1452 5.41588
lfingers 7.12502
lthumb 11.9891 35.0525
rfemur -50.4005 -3.44089 4.00448
rtibia 65.6354
rfoot -1.74579 -5.88443
rtoes -4.91421
lfemur -23.148 0.465983 -4.28692
ltibia 70.4825
lfoot 17.3301 -34.1002
ltoes -28.3796
1485
root -11.7526 16.0326 11.5545 3.44588 16.4306 3.46778
lowerback 24.5766 -1.01968 -3.80047
upperback 5.245 -2.21623 -0.198128
thorax -7.72375 -0.956731 2.62952
lowerneck -19.0954 0.0856322 -7.60853
upperneck 7.74327 1.78633 1.81777
head 5.32506 0.771982 1.9668
rclavicle -2.03987e-014 2.31522e-014
rhumerus -21.2562 -11.8666 -68.605
rradius 129.051
rwrist -0.396266
rhand -15.517 21.3953
rfingers 7.12502
rthumb 10.666 -8.31401
lclavicle -2.03987e-014 2.31522e-014
lhumerus 1.95627 14.8983 73.1523
lradius 126.041
lwrist 12.4759
lhand -13.7841 5.30127
lfingers 7.12502
lthumb 12.3373 34.9173
rfemur -49.0352 -4.16618 4.15761
rtibia 65.8939
rfoot -2.94617 -4.90899
rtoes -8.1884
lfemur -23.1977 1.56688 -5.12683
ltibia 70.2227
lfoot 13.5986 -31.7558
ltoes -27.8663
1486
root -11.7113 16.1648 11.5614 3.30661 16.4938 3.46414
lowerback 24.428 -0.884816 -3.91223
upperback 5.0838 -2.09412 -0.446585
thorax -7.84083 -0.893865 2.38261
lowerneck -18.8704 -0.0501462 -7.44421
upperneck 8.02247 1.54476 1.83717
head 5.3912 0.653434 1.92478
rclavicle 4.12975e-014 1.21259e-014
rhumerus -21.1085 -11.4479 -68.8468
rradius 129.407
rwrist -0.402505
rhand -16.0889 21.7552
rfingers 7.12502
rthumb 10.1144 -7.98175
lclavicle 4.12975e-014 1.21259e-014
lhumerus 1.68957 14.5161 73.4174
lradius 126.235
lwrist 11.8357
lhand -14.1603 5.07111
lfingers 7.12502
lthumb 11.9745 34.7086
rfemur -48.0502 -4.87537 5.1798
rtibia 66.8649
rfoot -4.19163 -4.50484
rtoes -9.39113
lfemur -23.6707 3.2333 -5.23812
ltibia 70.1679
lfoot 10.9057 -28.7463
ltoes -28.4967
1487
root -11.6855 16.2792 11.5677 3.12939 16.6068 3.12926
lowerback 24.2885 -0.732173 -3.96959
upperback 4.83875 -1.92549 -0.543696
thorax -8.05383 -0.806085 2.25874
lowerneck -18.5182 -0.165068 -7.46769
upperneck 8.44656 1.33473 2.11107
head 5.47809 0.560757 1.99747
rclavicle -8.72665e-014 -9.54166e-015
rhumerus -20.979 -10.917 -69.0754
rradius 129.647
rwrist -0.174344
rhand -17.339 22.7615
rfingers 7.12502
rthumb 8.90825 -7.03048
lclavicle -8.72665e-014 -9.54166e-015
lhumerus 1.47728 13.9455 73.7018
lradius 126.291
lwrist 11.4565
lhand -14.6248 5.01461
lfingers 7.12502
lthumb 11.5266 34.6777
rfemur -47.343 -5.67029 6.73781
rtibia 68.4688
rfoot -5.32298 -4.53763
rtoes -6.9561
lfemur -24.2934 5.02378 -4.88801
ltibia 70.1317
lfoot 8.08327 -26.2983
ltoes -29.6432
1488
root -11.6585 16.385 11.5846 2.90715 16.9752 3.01955
lowerback 23.9083 -0.594958 -4.29908
upperback 4.76958 -1.81847 -0.585493
thorax -7.93061 -0.751299 2.36046
lowerneck -17.9401 -0.394315 -7.79002
upperneck 8.59633 0.99712 2.57284
head 5.44598 0.41562 2.1621
rclavicle 2.39039e-014 9.54166e-015
rhumerus -20.1467 -10.4298 -69.1805
rradius 129.664
rwrist 0.0273725
rhand -18.0186 22.9957
rfingers 7.12502
rthumb 8.25241 -6.82313
lclavicle 2.39039e-014 9.54166e-015
lhumerus 1.4462 13.3116 74.1649
lradius 126.304
lwrist 11.3611
lhand -14.6365 4.96689
lfingers 7.12502
lthumb 11.5153 34.6306
rfemur -46.4842 -6.9026 8.07026
rtibia 70.5595
rfoot -6.43981 -4.83994
rtoes -1.71297
lfemur -24.7336 6.28045 -4.8577
ltibia 69.8894
lfoot 4.5653 -24.6034
ltoes -30.6358
